<svg width="631" height="485" viewBox="0 0 631 485" fill="none" xmlns="http://www.w3.org/2000/svg">
<path opacity="0.1" d="M315.9 484.764C489.925 484.764 631 455.278 631 418.904C631 382.53 489.925 353.043 315.9 353.043C141.875 353.043 0.799988 382.53 0.799988 418.904C0.799988 455.278 141.875 484.764 315.9 484.764Z" fill="#00853B"/>
<path d="M277.42 195.901C277.42 195.901 287.816 203.099 286.616 212.295C285.417 221.492 276.619 257.878 275.021 274.272C273.423 290.666 271.824 315.458 267.823 327.453C263.823 339.449 259.827 358.242 263.425 364.24C264.487 365.765 265.056 367.579 265.056 369.438C265.056 371.297 264.487 373.111 263.425 374.636C263.425 374.636 256.627 380.634 258.627 383.832C260.627 387.03 286.616 391.03 286.616 391.03C286.616 391.03 326.202 386.631 334.196 387.83C342.189 389.03 375.381 389.43 380.979 387.83C386.578 386.231 389.377 385.83 388.177 379.033C386.978 372.235 386.578 370.235 380.979 370.235C375.381 370.235 371.383 368.235 372.182 364.237C372.981 360.238 371.383 311.856 368.982 304.658C366.582 297.46 356.987 251.477 357.786 244.68C358.585 237.882 354.195 219.488 357.786 212.292C361.377 205.096 380.177 197.497 383.376 198.296C386.576 199.095 405.369 207.094 410.566 205.494C415.764 203.895 430.559 187.5 436.157 184.701C441.755 181.902 452.551 177.105 452.551 177.105C452.551 177.105 442.554 170.307 440.556 172.706C438.557 175.105 431.758 188.301 421.763 190.7C411.768 193.099 406.168 198.296 398.571 198.296C390.975 198.296 378.579 187.5 372.178 187.5C365.777 187.5 354.583 193.099 354.583 193.099C354.583 193.099 364.58 175.105 375.769 177.105C386.958 179.105 406.557 172.706 406.557 172.706C406.557 172.706 412.155 169.907 416.953 167.908C421.75 165.91 436.146 154.714 436.146 154.714L414.554 151.514L406.557 165.51C404.063 166.799 401.352 167.612 398.56 167.908C394.162 168.309 392.562 155.52 398.56 154.714C404.559 153.908 388.165 154.714 388.165 154.714C388.165 154.714 390.165 165.91 385.766 167.908C381.367 169.907 380.969 164.318 372.171 167.908C363.373 171.499 360.574 172.706 360.574 172.706C360.574 172.706 364.973 158.312 368.971 158.312C372.97 158.312 388.165 147.516 388.165 147.516L380.967 141.119C380.967 141.119 359.78 151.116 357.775 154.714C355.769 158.312 354.976 162.711 350.577 162.711C346.178 162.711 340.182 166.302 338.189 162.711C336.196 159.12 324.593 143.119 324.593 138.32C324.593 133.52 321.794 125.125 321.794 125.125L311.797 131.124C311.797 131.124 318.995 143.119 324.592 147.518C326.897 149.25 328.677 151.587 329.736 154.268C330.794 156.95 331.09 159.873 330.59 162.713C330.204 165.591 329.223 168.358 327.708 170.836C326.193 173.315 324.178 175.45 321.792 177.107C318.277 179.389 314.936 181.928 311.795 184.703L302.199 167.908C302.199 167.908 295.401 152.714 293.401 144.316C291.62 137.757 289.347 131.342 286.604 125.123L283.013 133.921C283.013 133.921 283.812 153.514 286.604 154.714C289.396 155.913 278.576 147.344 275.009 141.119C271.441 134.894 283.006 125.125 283.006 125.125H275.009C272.24 131.378 269.836 137.786 267.811 144.318C266.211 150.715 270.209 162.711 270.209 162.711L286.604 180.306C286.604 180.306 267.41 172.309 263.412 167.917C259.413 163.526 253.815 144.325 253.815 144.325L258.613 125.132L267.809 110.338H258.613C258.613 110.338 254.214 133.529 251.415 138.327C248.616 143.124 247.416 161.919 251.415 165.517C255.413 169.115 258.613 177.112 258.613 177.112C258.613 177.112 232.927 159.544 233.328 153.145C233.728 146.746 235.22 122.15 235.22 122.15C235.22 122.15 232.622 143.923 231.821 147.521C231.02 151.119 221.824 133.926 221.824 133.926C221.824 133.926 224.623 154.719 229.421 158.317C234.218 161.915 238.617 171.113 245.014 172.711C251.411 174.309 259.01 180.31 267.805 180.31C276.601 180.31 257.909 185.626 245.014 183.721C232.119 181.816 220.734 177.044 216.224 172.706C211.714 168.368 207.827 141.117 207.827 141.117C207.827 141.117 201.029 156.71 203.829 165.508C206.628 174.306 221.424 187.1 231.818 190.698C242.211 194.296 294.073 185.173 292.484 184.699C290.895 184.225 262.699 176.334 262.699 176.334L257.519 167.907L287.799 186.143H271.38L252.595 189.849L248.285 190.698" fill="#707070"/>
<path d="M277.42 195.901C277.42 195.901 287.816 203.099 286.616 212.295C285.417 221.492 276.619 257.878 275.021 274.272C273.423 290.666 271.824 315.458 267.823 327.453C263.823 339.449 259.827 358.242 263.425 364.24C264.487 365.765 265.056 367.579 265.056 369.438C265.056 371.297 264.487 373.111 263.425 374.636C263.425 374.636 256.627 380.634 258.627 383.832C260.627 387.03 286.616 391.03 286.616 391.03C286.616 391.03 326.202 386.631 334.196 387.83C342.189 389.03 375.381 389.43 380.979 387.83C386.578 386.231 389.377 385.83 388.177 379.033C386.978 372.235 386.578 370.235 380.979 370.235C375.381 370.235 371.383 368.235 372.182 364.237C372.981 360.238 371.383 311.856 368.982 304.658C366.582 297.46 356.987 251.477 357.786 244.68C358.585 237.882 354.195 219.488 357.786 212.292C361.377 205.096 380.177 197.497 383.376 198.296C386.576 199.095 405.369 207.094 410.566 205.494C415.764 203.895 430.559 187.5 436.157 184.701C441.755 181.902 452.551 177.105 452.551 177.105C452.551 177.105 442.554 170.307 440.556 172.706C438.557 175.105 431.758 188.301 421.763 190.7C411.768 193.099 406.168 198.296 398.571 198.296C390.975 198.296 378.579 187.5 372.178 187.5C365.777 187.5 354.583 193.099 354.583 193.099C354.583 193.099 364.58 175.105 375.769 177.105C386.958 179.105 406.557 172.706 406.557 172.706C406.557 172.706 412.155 169.907 416.953 167.908C421.75 165.91 436.146 154.714 436.146 154.714L414.554 151.514L406.557 165.51C404.063 166.799 401.352 167.612 398.56 167.908C394.162 168.309 392.562 155.52 398.56 154.714C404.559 153.908 388.165 154.714 388.165 154.714C388.165 154.714 390.165 165.91 385.766 167.908C381.367 169.907 380.969 164.318 372.171 167.908C363.373 171.499 360.574 172.706 360.574 172.706C360.574 172.706 364.973 158.312 368.972 158.312C372.97 158.312 388.165 147.516 388.165 147.516L380.967 141.119C380.967 141.119 359.78 151.116 357.775 154.714C355.769 158.312 354.976 162.711 350.577 162.711C346.178 162.711 340.182 166.302 338.189 162.711C336.196 159.12 324.593 143.119 324.593 138.32C324.593 133.52 321.794 125.125 321.794 125.125L311.797 131.124C311.797 131.124 318.995 143.119 324.592 147.518C326.897 149.25 328.677 151.587 329.736 154.268C330.794 156.95 331.09 159.873 330.59 162.713C330.204 165.591 329.223 168.358 327.708 170.836C326.193 173.315 324.178 175.45 321.792 177.107C318.277 179.389 314.936 181.928 311.795 184.703L302.199 167.908C302.199 167.908 295.401 152.714 293.401 144.316C291.62 137.757 289.347 131.342 286.604 125.123L283.013 133.921C283.013 133.921 283.812 153.514 286.604 154.714C289.396 155.913 278.576 147.344 275.009 141.119C271.441 134.894 283.006 125.125 283.006 125.125H275.009C272.24 131.378 269.836 137.786 267.811 144.318C266.211 150.715 270.209 162.711 270.209 162.711L286.604 180.306C286.604 180.306 267.41 172.309 263.412 167.917C259.413 163.526 253.815 144.325 253.815 144.325L258.613 125.132L267.809 110.338H258.613C258.613 110.338 254.214 133.529 251.415 138.327C248.616 143.124 247.416 161.919 251.415 165.517C255.413 169.115 258.613 177.112 258.613 177.112C258.613 177.112 232.927 159.544 233.328 153.145C233.728 146.746 235.22 122.15 235.22 122.15C235.22 122.15 232.622 143.923 231.821 147.521C231.02 151.119 221.824 133.926 221.824 133.926C221.824 133.926 224.623 154.719 229.421 158.317C234.218 161.915 238.617 171.113 245.014 172.711C251.411 174.309 259.01 180.31 267.805 180.31C276.601 180.31 257.909 185.626 245.014 183.721C232.119 181.816 220.734 177.044 216.224 172.706C211.714 168.368 207.827 141.117 207.827 141.117C207.827 141.117 201.029 156.71 203.829 165.508C206.628 174.306 221.424 187.1 231.818 190.698C242.211 194.296 294.073 185.173 292.484 184.699C290.895 184.225 262.699 176.334 262.699 176.334L257.519 167.907L287.799 186.143H271.38L252.595 189.849L248.285 190.698" stroke="#707070"/>
<path d="M366.709 120.229C367.749 133.224 360.991 131.664 375.026 143.101C389.061 154.538 391.14 158.183 399.982 159.215C408.825 160.247 438.448 154.536 441.567 159.215C444.685 163.894 425.973 169.61 441.567 176.368C457.16 183.127 467.558 178.448 473.276 184.166C478.995 189.885 485.751 201.32 492.509 188.845C499.267 176.37 486.271 161.296 492.509 146.74C498.746 132.185 481.198 112.433 477.427 100.998C473.657 89.5624 455.594 64.0906 441.559 63.051C427.525 62.0115 397.375 63.5717 396.853 54.7345C396.33 45.8974 377.62 14.1898 363.585 13.6692C349.55 13.1485 326.678 1.19447 312.124 0.154911C297.571 -0.88465 271.58 3.27355 262.75 13.6692C253.92 24.0648 254.431 42.258 241.438 40.6995C228.444 39.1411 211.813 27.1835 196.731 36.5413C181.65 45.8992 163.983 52.1366 164.503 63.051C165.024 73.9655 131.754 82.8008 136.433 104.116C141.112 125.432 130.196 138.424 143.71 146.74C157.224 155.057 186.855 160.775 196.731 159.215C206.608 157.655 220.643 129.066 232.078 125.947C243.513 122.828 250.792 106.714 257.035 115.031C263.278 123.347 278.867 135.824 292.382 136.343C305.896 136.862 337.088 133.743 344.882 125.947C352.676 118.151 366.709 120.229 366.709 120.229Z" fill="#00853B"/>
<path d="M179.057 102.296C153.066 97.0888 131.754 102.816 132.275 116.851C132.795 130.886 149.428 132.445 155.147 143.882C160.865 155.319 155.667 163.631 170.742 161.556C185.817 159.48 180.098 174.551 195.173 151.681C210.247 128.811 210.254 115.813 206.089 111.655C201.923 107.497 179.057 102.296 179.057 102.296Z" fill="#00853B"/>
<path d="M298.463 15.5561C272.472 10.3493 251.16 16.0767 251.681 30.1117C252.201 44.1467 268.834 45.7051 274.553 57.1421C280.271 68.579 275.073 76.8919 290.148 74.8164C305.222 72.7409 299.504 87.8118 314.578 64.9414C329.653 42.0711 329.66 29.074 325.495 24.9157C321.329 20.7575 298.463 15.5561 298.463 15.5561Z" fill="#00853B"/>
<path d="M412.452 65.3904C412.973 65.3904 424.927 56.5532 431.164 62.2717C437.401 67.9902 445.199 74.2276 441.039 76.3067C436.879 78.3858 459.232 78.9065 469.109 86.1816C478.985 93.4568 491.981 91.9001 481.065 100.217C470.148 108.533 495.099 110.092 490.421 121.529C485.742 132.965 503.416 148.038 498.739 148.038C494.062 148.038 482.104 154.796 481.065 154.796C480.025 154.796 412.45 70.0676 412.45 70.0676C412.45 70.0676 411.931 65.3904 412.452 65.3904Z" fill="#00853B"/>
<path d="M328.095 7.81592C328.615 7.81592 340.569 -1.02124 346.807 4.69724C353.044 10.4157 360.842 16.6531 356.682 18.7322C352.522 20.8114 374.875 21.332 384.752 28.6072C394.628 35.8823 407.624 34.3257 396.707 42.6422C385.791 50.9587 410.742 52.5171 406.063 63.9541C401.384 75.391 419.059 90.4638 414.382 90.4638C409.705 90.4638 397.747 97.2218 396.707 97.2218C395.668 97.2218 328.093 12.4931 328.093 12.4931C328.093 12.4931 327.574 7.81592 328.095 7.81592Z" fill="#00853B"/>
<path d="M161.697 94.0534C161.805 93.5442 155.649 80.015 162.539 75.1026C169.43 70.1901 177.151 63.8632 178.319 68.3642C179.487 72.8651 184.646 51.112 193.816 42.9657C202.985 34.8195 204.166 21.7862 210.029 34.1922C215.891 46.5982 222.605 22.52 232.818 29.4749C243.03 36.4297 261.447 22.2794 260.474 26.8553C259.501 31.4313 263.623 44.5298 263.407 45.5465C263.191 46.5632 166.271 95.0263 166.271 95.0263C166.271 95.0263 161.588 94.5627 161.697 94.0534Z" fill="#00853B"/>
<path d="M350.146 118.635C349.747 118.969 346.27 133.423 337.815 133.053C329.36 132.683 319.379 132.916 321.229 128.649C323.079 124.382 305.621 138.352 293.379 139.127C281.136 139.903 272.182 149.449 275.199 136.061C278.215 122.673 258.1 137.518 254.332 125.749C250.565 113.98 227.337 113.795 230.921 110.787C234.506 107.78 239.32 94.9175 240.117 94.2493C240.913 93.5811 347.14 115.052 347.14 115.052C347.14 115.052 350.545 118.3 350.146 118.635Z" fill="#00853B"/>
<path d="M383.75 378.09C383.75 378.09 379.36 363.188 384.57 352.214C386.786 347.626 387.453 342.444 386.472 337.445C385.979 335.073 385.269 332.751 384.351 330.509" stroke="#535461" stroke-width="2" stroke-miterlimit="10"/>
<path d="M387.63 331.304C387.63 333.129 384.321 338.43 384.321 338.43C384.321 338.43 381.033 333.129 381.033 331.304C381.033 330.427 381.382 329.585 382.002 328.965C382.623 328.344 383.465 327.995 384.342 327.995C385.22 327.995 386.062 328.344 386.682 328.965C387.303 329.585 387.651 330.427 387.651 331.304H387.63Z" fill="#00853B"/>
<path d="M391.969 339.9C390.98 341.433 385.326 344.085 385.326 344.085C385.326 344.085 385.432 337.842 386.421 336.309C386.646 335.921 386.947 335.583 387.307 335.315C387.666 335.048 388.076 334.856 388.512 334.751C388.948 334.646 389.4 334.631 389.842 334.707C390.284 334.783 390.705 334.947 391.082 335.191C391.458 335.434 391.781 335.751 392.031 336.123C392.28 336.495 392.452 336.914 392.535 337.354C392.619 337.795 392.611 338.247 392.514 338.685C392.417 339.122 392.233 339.536 391.971 339.9H391.969Z" fill="#00853B"/>
<path d="M391.732 354.286C390.098 355.107 383.884 354.541 383.884 354.541C383.884 354.541 387.116 349.203 388.755 348.383C389.144 348.185 389.568 348.065 390.002 348.031C390.437 347.998 390.874 348.05 391.288 348.186C391.703 348.321 392.086 348.537 392.417 348.822C392.747 349.106 393.018 349.453 393.215 349.842C393.411 350.231 393.528 350.656 393.56 351.091C393.591 351.525 393.537 351.962 393.399 352.376C393.261 352.79 393.043 353.172 392.757 353.501C392.471 353.83 392.123 354.099 391.732 354.294V354.286Z" fill="#00853B"/>
<path d="M389.278 364.525C387.807 365.613 381.586 366.102 381.586 366.102C381.586 366.102 383.877 360.29 385.348 359.209C386.055 358.734 386.918 358.55 387.757 358.695C388.597 358.84 389.348 359.303 389.854 359.988C390.361 360.673 390.583 361.527 390.476 362.372C390.369 363.218 389.94 363.989 389.278 364.525Z" fill="#00853B"/>
<path d="M379.795 343.781C381.102 345.054 387.211 346.375 387.211 346.375C387.211 346.375 385.719 340.31 384.384 339.037C383.748 338.462 382.914 338.156 382.057 338.183C381.2 338.211 380.387 338.57 379.79 339.185C379.192 339.8 378.857 340.623 378.854 341.48C378.851 342.337 379.181 343.162 379.775 343.781H379.795Z" fill="#00853B"/>
<path d="M377.035 356.329C378.669 357.15 384.883 356.584 384.883 356.584C384.883 356.584 381.651 351.247 380.012 350.426C379.229 350.037 378.323 349.973 377.493 350.25C376.663 350.526 375.977 351.119 375.583 351.901C375.19 352.682 375.122 353.587 375.394 354.418C375.666 355.249 376.256 355.939 377.035 356.337V356.329Z" fill="#00853B"/>
<path d="M375.932 368.386C377.403 369.474 383.624 369.962 383.624 369.962C383.624 369.962 381.333 364.151 379.863 363.07C379.156 362.595 378.292 362.41 377.453 362.555C376.614 362.701 375.863 363.164 375.356 363.849C374.85 364.534 374.627 365.388 374.734 366.233C374.842 367.078 375.271 367.849 375.932 368.386Z" fill="#00853B"/>
<path d="M218.384 402.914C218.384 402.914 222.266 407.99 216.589 415.64C210.912 423.29 206.231 429.779 208.105 434.558C208.105 434.558 216.666 420.321 223.659 420.123C230.652 419.926 226.049 411.474 218.384 402.914Z" fill="#00853B"/>
<path d="M201.554 402.914C201.554 402.914 197.672 407.99 203.349 415.64C209.026 423.29 213.707 429.779 211.833 434.558C211.833 434.558 203.272 420.321 196.279 420.123C189.285 419.926 193.884 411.474 201.554 402.914Z" fill="#00853B"/>
<path d="M223.034 412.595C223.034 414.39 222.837 415.827 222.589 415.827C222.341 415.827 222.144 414.412 222.144 412.595C222.144 410.778 222.392 411.647 222.639 411.647C222.887 411.647 223.034 410.807 223.034 412.595Z" fill="#FFD037"/>
<path d="M225.307 414.608C223.738 415.464 222.366 415.98 222.255 415.761C222.144 415.542 223.316 414.673 224.885 413.816C226.455 412.96 225.833 413.583 225.954 413.816C226.074 414.05 226.886 413.78 225.307 414.608Z" fill="#FFD037"/>
<path d="M222.817 412.595C222.817 414.39 223.015 415.827 223.262 415.827C223.51 415.827 223.708 414.412 223.708 412.595C223.708 410.778 223.46 411.647 223.212 411.647C222.964 411.647 222.817 410.807 222.817 412.595Z" fill="#FFD037"/>
<path d="M220.336 414.608C221.905 415.464 223.277 415.98 223.388 415.761C223.499 415.542 222.327 414.673 220.758 413.816C219.189 412.96 219.81 413.583 219.689 413.816C219.569 414.05 218.795 413.78 220.336 414.608Z" fill="#FFD037"/>
<path d="M200.539 434.485C200.539 434.485 208.563 432.88 210.698 430.738C212.833 428.596 222.462 424.856 223.537 427.528C224.613 430.199 237.98 439.291 228.882 440.897C219.785 442.502 207.489 443.017 204.845 441.963C202.2 440.909 200.539 434.485 200.539 434.485Z" fill="#A8A8A8"/>
<path opacity="0.2" d="M228.886 439.568C219.794 441.173 207.493 441.688 204.848 440.636C202.812 439.823 201.397 435.907 200.839 434.09L200.57 434.147C200.57 434.147 202.175 440.566 204.846 441.634C207.518 442.703 219.82 442.173 228.884 440.566C231.507 440.099 232.256 439.018 231.974 437.639C231.749 438.517 230.837 439.209 228.886 439.568Z" fill="black"/>
<path d="M355.915 384.893C355.915 384.893 380.256 380.022 386.754 373.531C393.251 367.041 422.456 355.681 425.7 363.797C428.945 371.912 469.532 399.499 441.96 404.374C414.387 409.248 377.046 410.864 368.93 407.618C360.815 404.372 355.915 384.893 355.915 384.893Z" fill="#A8A8A8"/>
<path opacity="0.2" d="M441.938 401.352C414.366 406.223 377.024 407.843 368.909 404.596C362.73 402.122 358.432 390.245 356.736 384.724L355.922 384.893C355.922 384.893 360.793 404.37 368.901 407.614C377.01 410.859 414.346 409.241 441.931 404.37C449.899 402.955 452.174 399.661 451.312 395.49C450.641 398.214 447.863 400.309 441.938 401.352Z" fill="black"/>
<path d="M344.252 408.781C344.252 408.781 355.111 408.449 358.391 406.115C361.671 403.781 375.089 401.003 375.902 404.736C376.715 408.469 392.219 423.322 379.96 423.421C367.7 423.52 351.477 421.513 348.209 419.518C344.941 417.523 344.252 408.781 344.252 408.781Z" fill="#A8A8A8"/>
<path opacity="0.2" d="M380.173 421.906C367.914 422.005 351.69 419.997 348.423 418.003C345.934 416.489 344.945 411.052 344.613 408.544H344.254C344.254 408.544 344.961 417.304 348.204 419.29C351.446 421.276 367.695 423.292 379.954 423.193C383.489 423.193 384.712 421.906 384.649 420.04C384.161 421.177 382.823 421.884 380.173 421.906Z" fill="black"/>
<path d="M390.759 422.394C392.055 421.338 392.999 419.913 393.467 418.308C393.677 417.502 393.604 416.648 393.259 415.89C392.914 415.131 392.318 414.515 391.573 414.144C389.833 413.48 387.982 414.683 386.569 415.903C385.156 417.124 383.542 418.512 381.698 418.25C382.646 417.39 383.356 416.3 383.757 415.084C384.159 413.869 384.239 412.57 383.989 411.314C383.909 410.794 383.689 410.305 383.353 409.899C382.385 408.867 380.638 409.312 379.48 410.126C375.803 412.713 374.778 417.704 374.758 422.2C374.558 420.558 374.535 418.899 374.688 417.252C374.759 416.422 374.626 415.588 374.301 414.822C373.976 414.055 373.468 413.38 372.823 412.855C371.955 412.388 370.98 412.157 369.995 412.183C369.175 412.065 368.34 412.121 367.543 412.347C366.746 412.574 366.006 412.966 365.372 413.498C364.758 414.322 364.442 415.33 364.475 416.357C364.507 417.384 364.887 418.369 365.551 419.153C366.921 420.689 368.539 421.984 370.338 422.985C371.709 423.799 372.879 424.913 373.76 426.243C373.864 426.428 373.949 426.622 374.015 426.823H384.373C386.692 425.642 388.84 424.152 390.759 422.394Z" fill="#00853B"/>
<path d="M191.514 327.961L191.641 366.824H204.03V327.961H191.514Z" fill="#929292"/>
<path d="M209.854 328.084V362.72L203.759 366.823V328.084H209.854Z" fill="#838383"/>
<path d="M219.733 328.725L219.86 367.587H232.249V328.725H219.733Z" fill="#929292"/>
<path d="M238.073 328.847V363.483L231.978 367.585V328.847H238.073Z" fill="#838383"/>
<path d="M23.726 409.185L23.8535 448.048H36.242V409.185H23.726Z" fill="#929292"/>
<path d="M40.9337 409.307V443.943L35.9717 448.046V409.307H40.9337Z" fill="#838383"/>
<path d="M51.9449 409.948L52.0723 448.811H64.4609V409.948H51.9449Z" fill="#929292"/>
<path d="M69.1526 410.071V444.707L64.1906 448.81V410.071H69.1526Z" fill="#838383"/>
<path d="M17.2885 413.429L74.3259 413.427C74.3259 413.427 100.202 375.674 152.76 352.506C186.023 338.222 221.173 328.811 257.124 324.565L256.327 313.161L214.742 316.07C214.742 316.07 136.98 317.626 80.5202 340.947C59.236 349.74 42.2314 364.452 32.8392 374.325C17.3914 390.568 16.4504 401.553 16.4504 401.553L17.2885 413.429Z" fill="#929292"/>
<path d="M16.3802 401.722L74.1149 401.331V413.412H16.3802V401.722Z" fill="#9F9F9F"/>
<path d="M73.9151 401.733C73.9151 401.733 87.1506 370.833 139.851 347.756C192.551 324.679 256.323 312.834 256.323 312.834C256.563 312.254 257.158 324.739 257.158 324.739C257.158 324.739 201.304 339.41 148.614 362.526C95.9232 385.642 74.1562 413.567 74.1562 413.567L73.9151 401.733Z" fill="#838383"/>
<path d="M209.66 250.285C209.66 250.285 210.57 250.38 211.939 250.477C214.874 250.685 218.959 256.143 224.385 267.632L227.99 275.267C227.99 275.267 243.043 257.837 249.618 253.594L252.352 261.733L235.606 284.923C234.494 286.725 232.967 288.234 231.152 289.325C227.001 291.756 222.595 291.286 219.943 286.98C215.795 280.244 210.73 269.923 210.134 266.993L209.66 250.285Z" fill="#C08F8F"/>
<path d="M163.041 238.67C167.728 238.67 171.527 234.265 171.527 228.83C171.527 223.395 167.728 218.989 163.041 218.989C158.355 218.989 154.556 223.395 154.556 228.83C154.556 234.265 158.355 238.67 163.041 238.67Z" fill="#766E6E"/>
<path d="M235.324 378.214C235.324 378.214 235.629 386.513 257.379 391.926C257.589 391.972 257.78 392.079 257.93 392.233C258.079 392.387 258.179 392.582 258.218 392.793C258.37 393.87 256.886 395.589 244.502 394.26C238.531 393.619 232.505 393.679 226.548 394.439C226.088 394.512 225.618 394.482 225.172 394.351C224.725 394.22 224.313 393.992 223.965 393.683C223.617 393.374 223.342 392.992 223.159 392.564C222.977 392.136 222.891 391.673 222.909 391.208L222.982 379.896L235.324 378.214Z" fill="#C08F8F"/>
<path d="M252.988 374.844C252.988 374.844 253.293 383.143 275.043 388.556C275.253 388.602 275.444 388.709 275.593 388.863C275.742 389.017 275.843 389.212 275.881 389.423C276.034 390.5 274.549 392.218 262.166 390.89C256.195 390.248 250.169 390.309 244.212 391.069C243.752 391.142 243.282 391.112 242.835 390.981C242.389 390.85 241.977 390.622 241.629 390.313C241.281 390.004 241.006 389.622 240.823 389.194C240.64 388.766 240.555 388.303 240.572 387.838L240.646 376.526L252.988 374.844Z" fill="#C08F8F"/>
<path d="M186.352 243.225C187.632 242.703 188.686 242.337 189.628 241.837C195.902 238.518 200.685 227.587 196.842 220.858C195.455 218.603 193.637 216.644 191.491 215.093C189.345 213.543 186.914 212.432 184.337 211.823C181.036 211.892 177.768 212.498 174.662 213.618C171.887 215.072 169.722 217.467 168.557 220.375C167.473 223.219 166.989 226.257 167.135 229.298C166.672 232.521 171.211 248.622 186.352 243.225Z" fill="#766E6E"/>
<path d="M252.318 321.149C249.473 316.108 244.932 312.238 239.502 310.23C232.101 308.059 212.197 308.165 204.698 303.945C204.698 303.945 185.064 304.349 173.065 298.035C173.065 298.035 161.187 314.463 170.895 327.647C173.107 330.651 177.608 334.671 181.175 335.763C185.395 337.053 191.266 336.716 201.687 336.716C206.457 336.716 209.637 336.939 212.154 340.887C213.427 342.883 215.727 356.148 208.384 378.376C208.242 378.805 209.032 379.539 209.132 379.584C215.143 381.949 221.55 383.144 228.01 383.105C239.046 383.042 273.447 381.532 272.827 378.094C268.446 353.828 252.318 321.149 252.318 321.149Z" fill="#E8DEAE"/>
<path d="M182.377 240.16L183.992 246.804C184.21 247.701 184.133 248.645 183.773 249.495C183.413 250.346 182.789 251.058 181.994 251.527L174.24 256.097C170.685 258.192 174.461 276.985 175.773 277.103C175.773 277.103 180.856 289.065 174.448 298.036C174.708 297.975 182.405 304.94 191.822 306.486C198.028 307.215 204.306 307.06 210.468 306.024C210.468 306.024 219.625 281.233 215.361 268.701L211.949 250.473C211.949 250.473 196 249.913 196 241.649L182.377 240.16Z" fill="#C08F8F"/>
<path d="M174.173 256.152C170.865 258.619 168.329 261.978 166.862 265.835L157.025 291.69C157.025 291.69 168.315 295.101 168.695 294.25C170.613 290.009 176.647 276.888 177.965 276.865L174.173 256.152Z" fill="#43A16D"/>
<path d="M209.66 249.872C209.66 249.872 210.57 249.967 211.939 250.066C214.874 250.276 218.959 255.79 224.385 267.395L227.99 275.116C227.99 275.116 232.974 288.237 231.15 289.316C226.999 291.77 222.593 291.291 219.941 286.946C215.793 280.141 210.728 269.71 210.132 266.756L209.66 249.872Z" fill="#43A16D"/>
<path d="M196.76 225.219C193.252 217.628 186.203 213.416 181.016 215.813C177.012 217.662 175.288 222.908 176.322 228.697C176.102 228.616 175.867 228.585 175.633 228.605C175.4 228.626 175.173 228.697 174.97 228.815C173.893 229.533 174.177 231.867 175.611 234.013C175.999 234.766 176.564 235.413 177.257 235.898C177.951 236.384 178.752 236.694 179.592 236.801C183.362 242.511 189.235 245.373 193.717 243.303C198.904 240.906 200.266 232.81 196.76 225.219Z" fill="#C08F8F"/>
<path d="M177.294 291.316C176.374 286.632 175.865 281.878 175.771 277.105C174.459 276.987 174.236 256.099 174.236 256.099L181.992 251.529C183.626 250.563 190.499 261.483 193.595 260.896C196.826 260.286 197.965 246.112 198.622 246.624C198.753 246.726 198.891 246.825 199.029 246.924C203.653 250.183 211.957 250.475 211.957 250.475L215.368 268.703C218.113 275.364 216.793 286.478 216.294 289.128C216.23 289.472 215.415 289.776 215.064 289.81C210.202 290.28 177.732 293.421 177.294 291.316Z" fill="#43A16D"/>
<path d="M182.061 289.664C182.061 289.664 200.43 247.193 206.669 248.27C206.669 248.27 211.782 247.647 213.362 249.897C214.942 252.147 212.594 292.058 206.066 306.487C200.647 318.465 172.872 300.521 172.872 300.521C173.124 299.55 173.673 298.682 174.443 298.038C177.544 295.816 180.14 292.962 182.061 289.664Z" fill="#E8DEAE"/>
<path d="M185.594 216.109C184.463 216.68 184.018 217.755 183.125 219.906C181.403 224.061 181.039 229.302 179.47 230.585C179.298 230.742 179.083 230.842 178.852 230.871C178.134 230.934 177.644 230.101 176.574 229.02C175.766 228.203 175.473 228.099 175.008 227.643C174.159 226.732 173.537 225.635 173.19 224.439C172.844 223.244 172.784 221.984 173.015 220.761C173.523 218.695 174.795 216.898 176.576 215.733C179.203 213.947 182.421 213.249 185.553 213.787C187.615 214.079 189.593 214.801 191.359 215.904C193.125 217.008 194.64 218.47 195.806 220.195C195.6 220.454 189.363 214.209 185.594 216.109Z" fill="#766E6E"/>
<path d="M155.729 293.458C155.405 294.313 155.39 295.254 155.685 296.119C155.98 296.985 156.566 297.72 157.345 298.2C159.204 299.385 161.334 300.076 163.535 300.207C172.369 300.737 187.07 300.376 195.02 297.263L192.031 289.722L167.103 287.296C165.214 287.092 163.305 287.356 161.543 288.065C159.781 288.775 158.221 289.908 157.002 291.365C156.474 291.994 156.045 292.7 155.729 293.458Z" fill="#C08F8F"/>
<path d="M194.672 297.255C194.672 297.255 198.426 298.731 204.2 294.458C204.537 294.211 204.817 293.896 205.024 293.534C205.23 293.171 205.358 292.769 205.398 292.354L205.619 289.955C205.686 289.221 205.475 288.488 205.025 287.903C204.576 287.318 203.922 286.924 203.195 286.801C202.638 286.781 202.082 286.848 201.547 286.998C199.48 287.896 199.855 287.702 199.354 287.51C199.354 287.51 201.762 285.33 201.837 283.935C201.913 282.54 193.417 286.969 191.682 289.711L194.672 297.255Z" fill="#C08F8F"/>
<path d="M251.792 261.776C251.792 261.776 255.546 263.251 261.32 258.978C261.657 258.732 261.938 258.417 262.144 258.054C262.35 257.691 262.478 257.289 262.518 256.874L262.739 254.475C262.807 253.741 262.595 253.008 262.145 252.423C261.696 251.838 261.042 251.444 260.315 251.321C259.759 251.301 259.203 251.368 258.667 251.518C256.6 252.416 256.975 252.222 256.475 252.03C256.475 252.03 258.882 249.85 258.958 248.455C259.033 247.06 250.537 251.49 248.803 254.231L251.792 261.776Z" fill="#C08F8F"/>
<path d="M187.885 404.09C184.467 404.616 180.975 403.891 178.05 402.047C176.878 401.3 175.463 401.033 174.1 401.3L174.175 404.239L169.756 404.11C169.756 404.11 169.536 401.196 169.338 398.573C169.372 397.452 169.539 396.338 169.835 395.257C170.072 394.115 170.433 393.003 170.913 391.941C173.292 392.02 179.429 392.377 180.56 391.016C180.993 391.895 181.573 392.694 182.274 393.379C182.504 393.61 182.745 393.84 182.992 394.063C183.24 394.285 183.418 394.413 183.635 394.583C183.912 394.804 184.195 395.02 184.497 395.235C187.512 397.363 191.264 398.995 193.341 400.507C196.575 402.912 192.099 403.485 187.885 404.09Z" fill="#C28C76"/>
<path d="M170.891 391.957C169.95 394.041 169.416 396.285 169.318 398.569C169.367 399.173 169.408 399.691 169.448 400.113C171.002 400.14 172.823 400.011 172.107 399.164C170.918 397.758 171.877 391.982 171.877 391.982L170.891 391.957Z" fill="#65554F"/>
<path d="M193.986 401.101C193.781 400.891 193.558 400.7 193.32 400.528C191.948 399.528 189.835 398.472 187.693 397.26C186 397.731 184.486 398.697 183.346 400.034C182.364 401.239 182.285 403.187 182.018 403.519C183.109 404.616 194.207 403.218 194.419 402.121V402.085C194.4 401.715 194.246 401.365 193.986 401.101Z" fill="#65554F"/>
<path d="M187.881 404.09C191.269 403.602 194.814 403.139 194.401 401.738C184.012 405.356 179.384 401.6 178.488 400.428C178.124 400.06 177.688 399.772 177.208 399.581C176.727 399.391 176.212 399.303 175.696 399.322C173.468 399.688 171.184 399.204 169.297 397.966C169.292 398.168 169.301 398.369 169.324 398.569C169.523 401.192 169.74 404.106 169.74 404.106L174.162 404.236L174.087 401.297C174.792 401.211 175.506 401.311 176.16 401.586C176.814 401.861 177.386 402.301 177.818 402.864C178.876 404.302 183.662 404.699 187.881 404.09Z" fill="#65554F"/>
<path d="M177.823 391.957C178.206 392.778 178.724 393.529 179.357 394.178C179.965 394.839 180.632 395.444 181.35 395.986C182.058 396.531 182.806 397.024 183.587 397.46C183.978 397.677 184.38 397.876 184.793 398.063C185.203 398.251 185.623 398.417 186.05 398.56C185.725 398.259 185.379 397.957 185.034 397.686C184.689 397.415 184.346 397.129 183.998 396.864C183.31 396.312 182.608 395.797 181.919 395.26C181.229 394.724 180.542 394.197 179.858 393.653C179.173 393.109 178.477 392.573 177.823 391.957Z" fill="#65554F"/>
<path d="M171.567 414.357C167.924 415.049 164.153 414.399 160.953 412.527C159.628 411.728 158.085 411.366 156.543 411.493L156.636 413.987L151.887 414.01C151.887 414.01 151.782 411.928 151.481 409.118C151.47 407.919 151.61 406.724 151.896 405.56C152.11 404.332 152.456 403.132 152.928 401.978C155.482 401.976 162.072 402.139 163.222 400.634C163.719 401.559 164.37 402.394 165.148 403.101C165.399 403.345 165.669 403.578 165.942 403.808C166.175 403.993 166.403 404.171 166.647 404.346C166.955 404.572 167.265 404.795 167.591 405.009C170.891 407.188 174.983 408.794 177.262 410.34C180.843 412.774 176.071 413.557 171.567 414.357Z" fill="#C28C76"/>
<path d="M152.929 401.978C151.997 404.244 151.507 406.669 151.486 409.119C151.545 409.785 151.625 410.325 151.679 410.771C153.349 410.745 155.295 410.535 154.492 409.653C153.175 408.201 153.984 401.964 153.984 401.964L152.929 401.978Z" fill="#65554F"/>
<path d="M178.002 410.929C177.773 410.713 177.527 410.517 177.266 410.342C175.755 409.317 173.455 408.263 171.116 407.042C169.32 407.611 167.733 408.702 166.559 410.175C165.551 411.498 165.531 413.59 165.262 413.958C166.471 415.092 178.311 413.195 178.497 412.004L178.505 411.964C178.466 411.57 178.288 411.203 178.002 410.929Z" fill="#65554F"/>
<path d="M171.566 414.356C175.181 413.711 178.966 413.081 178.47 411.598C167.473 415.852 162.367 412 161.367 410.778C160.965 410.397 160.489 410.105 159.969 409.919C159.448 409.733 158.894 409.658 158.343 409.698C155.969 410.173 153.504 409.736 151.437 408.476C151.45 408.698 151.466 408.917 151.488 409.129C151.789 411.938 151.892 414.017 151.892 414.017L156.638 413.991L156.555 411.498C158.094 411.376 159.633 411.739 160.955 412.537C164.156 414.404 167.925 415.051 171.566 414.356Z" fill="#65554F"/>
<path d="M160.344 401.726C160.784 402.591 161.366 403.376 162.067 404.048C162.744 404.735 163.481 405.36 164.27 405.915C165.049 406.474 165.868 406.975 166.72 407.415C167.148 407.633 167.585 407.831 168.021 408.028C168.463 408.222 168.917 408.384 169.382 408.513C169.018 408.189 168.637 407.901 168.259 407.614C167.882 407.327 167.489 407.05 167.117 406.771C166.347 406.207 165.596 405.672 164.836 405.123C164.076 404.575 163.325 404.036 162.56 403.48C161.795 402.923 161.071 402.357 160.344 401.726Z" fill="#65554F"/>
<path d="M148.239 319.467C148.239 319.467 168.505 325.432 173.254 327.714C174.49 328.308 184.233 331.092 185.334 337.019C188.046 351.639 183.729 390.598 180.588 392.761C177.447 394.924 169.743 392.766 169.743 392.766C169.582 389.888 169.58 387.003 169.739 384.125C170.226 371.529 170.729 351.722 164.517 347.872L152.338 341.974C152.338 341.974 166.634 350.99 167.776 353.034C168.918 355.078 166.176 402.638 166.176 402.638C166.176 402.638 149.813 405.482 149.124 401.831C148.435 398.181 147.562 378.623 144.137 365.014C132.644 358.855 132.031 358.096 120.536 351.942C114.238 351.239 110.294 343.557 110.294 343.557C110.294 343.557 104.433 333.801 113.537 317.747L148.239 319.467Z" fill="#A8A8A8"/>
<path d="M123.949 263.527C129.905 263.527 134.733 258.699 134.733 252.743C134.733 246.788 129.905 241.96 123.949 241.96C117.994 241.96 113.166 246.788 113.166 252.743C113.166 258.699 117.994 263.527 123.949 263.527Z" fill="#ABBCCA"/>
<path d="M137.008 258.555C124.057 261.577 121.001 254.912 120.639 249.3C120.276 243.687 122.412 234.299 130.567 231.25C138.722 228.201 163.365 252.417 137.008 258.555Z" fill="#ABBCCA"/>
<path d="M137.828 230.677C132.479 231.717 129.194 238.534 129.95 246.446H129.91C128.447 246.732 127.576 248.601 127.98 250.664C128.384 252.727 129.889 254.117 131.352 253.849C131.547 253.811 131.735 253.742 131.909 253.646C134.884 259.634 140.654 262.97 145.403 262.042C151.296 260.893 153.386 253.619 151.646 244.714C149.906 235.808 143.726 229.528 137.828 230.677Z" fill="#C28C76"/>
<path d="M143.525 262.909C143.254 261.956 144.389 259.623 145.08 258.282C140.392 259 134.815 255.691 131.909 249.844C131.735 249.94 131.547 250.008 131.352 250.046C131.352 250.046 130.894 262.225 128.257 262.376C125.17 265.022 115.085 273.983 117.141 278.145C118.868 281.628 128.174 279.833 142.053 277.152C143.402 276.941 144.661 276.341 145.674 275.425C148.588 272.649 147.793 267.654 147.401 266.529C146.854 265.033 143.915 264.286 143.525 262.909Z" fill="#C28C76"/>
<path d="M149.561 238.563C149.561 238.563 146.854 234.355 146.069 235.295C145.285 236.236 143.777 238.775 138.631 238.502C136.513 241.393 135.088 244.733 134.465 248.262C133.747 253.533 129.91 246.449 129.91 246.449C129.91 246.449 124.989 234.189 130.304 231.27C132.711 229.822 135.468 229.057 138.277 229.057C141.087 229.057 143.843 229.822 146.251 231.27C151.556 234.256 149.561 238.563 149.561 238.563Z" fill="#ABBCCA"/>
<path d="M205.197 313.38C204.152 313.38 204.674 312.271 204.674 312.271C216.718 312.012 214.508 310.513 214.309 309.797C214.109 309.08 205.243 309.339 202.951 309.339C201.904 309.456 200.847 309.242 199.929 308.727C204.746 304.534 202.661 303.805 201.491 303.805C200.697 303.805 196.911 306.978 194.553 309.012C193.944 309.541 193.227 309.933 192.453 310.16C191.678 310.387 190.863 310.445 190.065 310.328L168.774 307.254C168.243 307.178 167.742 306.96 167.325 306.622C166.908 306.285 166.59 305.841 166.404 305.337L164.103 299.125C163.982 298.793 162.898 295.83 158.828 284.257C154.475 271.881 152.456 265.595 149.455 264.9C147.728 264.503 148.674 272.723 143.003 275.773C138.816 278.023 127.382 275.306 127.382 275.306L128.016 262.429C116.064 264.48 111.159 271.775 111.159 271.775C111.159 271.775 93.4592 298.832 92.2113 302.554C88.326 314.235 87.7012 339.872 87.6006 346.585C87.5886 347.386 87.4824 348.183 87.2846 348.959L85.5574 356.543C83.209 363.366 82.8643 363.545 83.4819 365.15C84.0995 366.755 85.9865 360.881 86.4695 359.538C86.9525 358.195 87.3942 358.425 87.3942 358.425C85.8483 371.763 86.9363 370.14 87.7137 370.192C88.4912 370.244 89.3799 360.906 89.5361 360.527C89.6923 360.148 90.4985 360.786 90.4985 360.786C90.1017 368.655 89.748 370.066 90.9815 371.145C92.2149 372.224 92.811 362.326 92.881 361.286C92.951 360.247 94.0211 360.856 94.0211 360.856C93.4825 372.885 95.1182 370.784 95.8471 370.637C96.5761 370.49 96.9046 361.637 97.0608 359.326C97.0124 358.271 97.2963 357.228 97.8724 356.344C101.736 361.434 102.6 359.396 102.681 358.231C102.736 357.367 99.1184 352.596 97.2942 350.253C96.9751 349.841 96.7519 349.363 96.6408 348.854C96.5296 348.344 96.5332 347.817 96.6515 347.309L105.332 310.335C105.614 309.144 106.078 308.004 106.71 306.955L112.482 297.363L117.963 288.255L148.272 296.527C149.597 303.067 152.111 313.003 155.696 316.729C161.607 322.871 185.406 320.839 191.76 319.945C192.799 319.798 193.854 319.81 194.889 319.979L200.963 320.954C207.931 322.844 208.125 323.167 209.687 322.451C211.249 321.735 205.263 320.241 203.893 319.86C202.523 319.48 202.719 318.997 202.719 318.997C216.136 319.648 214.443 318.673 214.443 317.892C214.443 317.111 205.062 316.847 204.674 316.718C204.286 316.589 204.868 315.743 204.868 315.743C212.747 315.614 214.179 315.873 215.154 314.569C216.129 313.266 206.233 313.38 205.197 313.38Z" fill="#C28C76"/>
<path d="M145.046 263.676C145.046 263.676 150.658 264.026 152.245 266.421C153.657 268.523 159.048 283.063 162.718 293.216C165.209 300.123 166.345 302.899 166.816 303.974C166.894 304.157 166.907 304.361 166.853 304.551C166.799 304.742 166.68 304.909 166.518 305.023C162.312 308.025 157.902 310.73 153.321 313.12C153.125 313.191 152.911 313.19 152.716 313.115C152.522 313.04 152.361 312.898 152.263 312.714C150.303 309.019 140.121 289.288 142.568 283.478C145.254 277.053 145.046 263.676 145.046 263.676Z" fill="#737065"/>
<path d="M151.434 318.621C147.739 297.309 151.951 303.689 151.951 289.535C151.951 285.011 146.188 274.5 146.504 272.658L147.829 264.938C147.856 264.78 147.831 264.618 147.757 264.476C147.684 264.335 147.567 264.22 147.423 264.151C147.423 264.151 144.694 263.336 144.613 263.819L143.823 268.353C143.497 270.211 142.512 271.889 141.048 273.078C139.584 274.268 137.74 274.889 135.855 274.827H135.643C133.62 274.762 131.7 273.917 130.287 272.468C128.873 271.02 128.075 269.08 128.059 267.056L128.016 262.388C123.295 262.547 118.735 264.145 114.949 266.968C109.083 271.247 96.0534 293.595 91.8144 300.723C91.7329 300.86 91.6811 301.012 91.6622 301.17C91.6433 301.328 91.6577 301.489 91.7046 301.641C91.7514 301.793 91.8297 301.934 91.9343 302.054C92.0389 302.174 92.1675 302.271 92.3118 302.339L105.822 308.711L115.85 291.733L110.078 319.442C110.054 319.557 110.056 319.675 110.084 319.789C110.112 319.903 110.164 320.009 110.238 320.1C110.312 320.191 110.405 320.264 110.511 320.315C110.617 320.365 110.732 320.391 110.85 320.392L151.976 320.284C151.692 319.769 151.508 319.205 151.434 318.621Z" fill="#737065"/>
<path d="M141.581 415.248C141.581 415.248 147.712 417.02 138.036 424.482C138.036 424.482 105.778 425.448 102.323 422.751C98.8689 420.054 104.029 406.301 104.029 406.301C110.959 408.051 118.035 409.162 125.168 409.621C127.607 409.716 130.027 413.661 130.027 413.661L141.581 415.248Z" fill="#4C4C56"/>
<path d="M103.503 360.893C103.503 360.893 135.728 350.461 136.645 371.324C137.562 392.187 117.613 433.865 117.613 433.865L99.5333 428.181L104.74 395.949C104.74 395.949 84.1805 388.835 82.9506 388.367C81.7207 387.898 103.503 360.893 103.503 360.893Z" fill="#6B6A7E"/>
<path d="M99.6463 372.283L101.903 374.524L103.35 375.971C103.35 375.971 110.712 389.125 120.227 381.034C129.743 372.944 112.845 366.888 109.467 366.577C108.769 366.451 108.112 366.154 107.557 365.711C107.002 365.269 106.565 364.695 106.286 364.042C105.765 363.041 105.39 361.97 105.173 360.863L99.6463 372.283Z" fill="#866067"/>
<path opacity="0.05" d="M99.6463 372.283L101.903 374.524L103.35 375.971C103.35 375.971 110.712 389.125 120.227 381.034C129.743 372.944 112.845 366.888 109.467 366.577C108.769 366.451 108.112 366.154 107.557 365.711C107.002 365.269 106.565 364.695 106.286 364.042C105.765 363.041 105.39 361.97 105.173 360.863L99.6463 372.283Z" fill="black"/>
<path opacity="0.1" d="M101.133 372.285L103.39 374.525C103.677 370.632 105.22 366.937 107.787 363.995C107.266 362.994 106.891 361.923 106.674 360.815L101.133 372.285Z" fill="black"/>
<path d="M89.0389 338.222L110.207 361.493C110.207 361.493 102.846 368.574 104.379 375.996L89.0334 357.105L89.0389 338.222Z" fill="#C4C8E2"/>
<path opacity="0.1" d="M89.1609 338.222V357.114L91.6189 360.141L98.9156 369.118L104.507 376C102.973 368.577 110.335 361.494 110.335 361.494L89.1609 338.222Z" fill="black"/>
<path d="M91.2275 304.825C91.2275 304.825 91.2275 311.906 85.7029 309.888C80.1783 307.87 84.473 389.827 84.473 389.827C84.473 389.827 100.433 376.673 97.3589 367.231C94.5863 358.868 93.4352 350.053 93.9673 341.258C94.2582 331.832 91.2275 304.825 91.2275 304.825Z" fill="#D39999"/>
<path d="M93.698 316.56C93.698 316.56 89.0909 330.385 93.698 340.848C98.3051 351.312 66.3768 335.103 66.3768 335.103C66.3768 335.103 73.4347 331.392 70.9839 313.516L93.698 316.56Z" fill="#FDC2CC"/>
<path opacity="0.1" d="M92.2402 349.014C92.0511 352.723 92.0511 356.438 92.2402 360.146L99.5368 369.123C98.4739 366.626 97.2666 364.193 95.9208 361.836C94.7861 359.904 94.5329 352.203 94.4737 343.413L91.7985 340.472C92.0803 345.215 92.2402 349.014 92.2402 349.014Z" fill="black"/>
<path d="M87.897 302.995C87.5577 301.223 90.2185 303.893 91.0714 305.443L91.1144 305.53C92.3443 307.915 91.7285 307.215 93.5724 312.612C95.4163 318.009 92.9584 357.119 95.7413 361.888C97.6315 365.249 99.2728 368.745 100.652 372.346L95.7413 370.319C95.7413 370.319 93.8974 364.247 92.6747 362.897C91.452 361.546 92.0607 349.072 92.0607 349.072C92.0607 349.072 91.1414 327.485 90.2167 322.765C89.4878 318.962 88.6206 306.724 87.897 302.995Z" fill="#C4C8E2"/>
<path opacity="0.1" d="M87.897 302.995C87.5577 301.223 90.2185 303.893 91.0714 305.443L91.1144 305.53C92.3443 307.915 91.7285 307.215 93.5724 312.612C95.4163 318.009 92.9584 357.119 95.7413 361.888C97.6315 365.249 99.2728 368.745 100.652 372.346L95.7413 370.319C95.7413 370.319 93.8974 364.247 92.6747 362.897C91.452 361.546 92.0607 349.072 92.0607 349.072C92.0607 349.072 91.1414 327.485 90.2167 322.765C89.4878 318.962 88.6206 306.724 87.897 302.995Z" fill="black"/>
<path d="M78.3433 387.122C78.3433 387.122 126.831 385.095 132.971 399.267C139.112 413.438 124.38 422.212 124.38 422.212C124.38 422.212 103.821 415.131 99.2136 416.14C94.6065 417.149 78.3433 413.438 78.3433 413.438V387.122Z" fill="#706F81"/>
<path d="M103.04 378.357C103.04 378.357 114.091 371.61 120.229 375.973C126.368 380.336 125.754 392.162 117.163 392.491C114.701 392.619 112.242 392.201 109.96 391.268C107.678 390.335 105.631 388.91 103.964 387.094L103.04 378.357Z" fill="#8C676D"/>
<path d="M79.9234 298.419C79.9234 298.419 70.1023 290.994 55.6759 318.287C41.2496 345.579 44.9374 392.487 44.9374 392.487C44.9374 392.487 55.6759 393.162 55.3725 404.289C55.0691 415.415 97.1129 417.799 97.1129 417.799C97.1129 417.799 96.4989 307.168 92.2024 304.148C88.3338 301.79 84.2156 299.868 79.9234 298.419Z" fill="#CFD1DC"/>
<path opacity="0.1" d="M76.1081 318.542C77.8808 319.998 79.303 321.834 80.2693 323.914C81.2357 325.994 81.7212 328.265 81.6901 330.559C81.7404 340.66 81.9648 362.43 82.8985 366.547C84.1283 371.944 102.539 379.025 112.056 378.691C112.056 378.691 116.664 388.133 111.137 390.16C105.611 392.187 71.8547 390.16 71.8547 390.16C71.8547 390.16 58.6564 373.642 58.353 359.164C58.0496 344.685 56.1841 328.462 58.353 325.435C60.1269 322.865 67.5385 311.897 76.1081 318.542Z" fill="black"/>
<path d="M76.5875 317.192C78.3692 318.644 79.7998 320.481 80.7728 322.564C81.7459 324.647 82.2362 326.922 82.2072 329.221C82.2575 339.322 82.4819 361.092 83.4155 365.209C84.6454 370.606 103.058 377.687 112.574 377.353C112.574 377.353 117.181 386.795 111.654 388.822C106.128 390.85 72.3718 388.822 72.3718 388.822C72.3718 388.822 59.1735 372.304 58.8701 357.826C58.5666 343.348 56.7012 327.124 58.8701 324.097C60.6063 321.545 68.0179 310.547 76.5875 317.192Z" fill="#CFD1DC"/>
<path d="M138.202 431.159C138.202 431.159 144.333 432.931 134.658 440.393C134.658 440.393 102.399 441.359 98.9444 438.662C95.49 435.966 100.65 422.213 100.65 422.213C107.58 423.962 114.657 425.073 121.79 425.532C124.228 425.628 126.648 429.572 126.648 429.572L138.202 431.159Z" fill="#4C4C56"/>
<path opacity="0.1" d="M77.153 342.432C77.153 342.432 78.6863 363.685 88.8234 368.405L77.153 342.432Z" fill="black"/>
<path d="M60.3125 294.875C60.748 296.559 61.377 298.186 62.1868 299.725L62.3175 299.966C67.5795 309.62 78.7551 313.14 87.8687 308.009C96.9822 302.878 100.904 290.845 96.8333 280.518C92.7626 270.191 82.0982 265.113 72.4537 268.9C62.8092 272.687 57.5048 284.061 60.315 294.884L60.3125 294.875Z" fill="#8C676D"/>
<path opacity="0.1" d="M55.6831 318.653C57.6717 314.798 59.9664 311.11 62.5452 307.622C60.4734 310.617 58.5916 313.739 56.9112 316.969C42.4848 344.294 46.1726 391.169 46.1726 391.169C46.1726 391.169 56.9111 391.844 56.6077 402.971C56.333 412.961 90.1699 415.885 97.1057 416.379V418.144C97.1057 418.144 55.0601 415.76 55.3653 404.633C55.6705 393.507 44.9302 392.832 44.9302 392.832C44.9302 392.832 41.2729 345.978 55.6831 318.653Z" fill="black"/>
<path d="M57.2617 271.3C57.974 270.318 58.9036 269.513 59.978 268.95C61.0524 268.386 62.2426 268.078 63.4555 268.05C64.9649 267.223 66.5518 266.546 68.1935 266.028C69.1155 265.818 69.991 265.441 70.7765 264.914C71.3392 264.398 71.8631 263.842 72.3442 263.249C74.6712 260.779 77.8733 260.423 80.8781 259.92C83.3225 259.514 87.0597 257.318 89.1967 259.853C89.512 260.205 89.7138 260.643 89.7758 261.112C89.8378 261.58 89.7571 262.056 89.5442 262.478C89.3361 262.775 89.0176 262.967 88.8956 263.337C88.8102 263.826 88.9068 264.33 89.1673 264.753L93.9037 274.835C93.1645 275.585 92.2694 276.163 91.282 276.528C90.2945 276.894 89.2387 277.038 88.1895 276.95C87.6086 276.889 87.0316 276.795 86.4614 276.668C85.2805 278.165 83.573 277.851 81.9209 278.818C80.9451 279.5 80.1934 280.456 79.7611 281.565C78.3344 284.646 77.751 288.051 78.0703 291.432C78.1923 292.704 78.3285 294.286 77.3454 294.968C76.9652 295.182 76.5657 295.359 76.1522 295.497C74.2952 296.375 74.1543 299.141 73.3432 301.19C72.3529 303.684 69.9778 305.856 70.4935 308.521C70.7414 309.177 70.8328 309.881 70.7606 310.579C70.6279 310.979 70.3503 311.314 69.9824 311.519C69.4132 311.798 68.772 311.895 68.1458 311.796C67.5197 311.698 66.9391 311.409 66.4831 310.969C65.531 310.038 64.7618 308.937 64.215 307.723L56.5331 293.192C55.6191 291.574 54.8386 289.885 54.1992 288.14C53.2752 285.299 53.0713 282.273 53.6059 279.334C54.1404 276.394 55.3966 273.634 57.2617 271.3Z" fill="#9A8A8D"/>
<path d="M456.444 219.511C449.966 217.716 455.007 212.672 455.007 212.672L455.043 212.294C455.051 212.218 455.04 212.142 455.011 212.071C454.983 212.001 454.938 211.938 454.88 211.889C454.822 211.84 454.753 211.805 454.679 211.788C454.605 211.772 454.528 211.773 454.454 211.793C453.167 212.134 450.477 212.556 451.025 209.907C451.014 209.554 450.922 209.207 450.754 208.896C450.586 208.584 450.348 208.316 450.059 208.112C449.982 208.058 449.917 207.987 449.87 207.905C449.823 207.823 449.795 207.732 449.787 207.638C449.78 207.544 449.793 207.449 449.826 207.361C449.859 207.272 449.911 207.192 449.978 207.126C450.666 206.514 451.217 205.764 451.594 204.925C451.62 204.848 451.625 204.765 451.608 204.686C451.591 204.607 451.553 204.533 451.498 204.473C451.443 204.414 451.373 204.37 451.295 204.346C451.217 204.323 451.134 204.32 451.055 204.34L448.572 204.999C448.518 205.015 448.46 205.017 448.404 205.007C448.348 204.996 448.295 204.972 448.251 204.937C448.206 204.902 448.17 204.857 448.146 204.805C448.122 204.753 448.11 204.697 448.113 204.64V204.304C448.113 204.252 448.102 204.201 448.082 204.153C448.062 204.106 448.033 204.063 447.996 204.026C447.959 203.99 447.915 203.962 447.867 203.942C447.819 203.923 447.768 203.913 447.716 203.914L446.833 203.929C446.689 203.931 446.547 203.9 446.418 203.839C446.289 203.777 446.175 203.687 446.087 203.574C445.998 203.461 445.937 203.33 445.908 203.189C445.879 203.049 445.882 202.904 445.919 202.765L446.816 199.309C446.972 198.707 446.904 198.069 446.624 197.513C445.095 194.574 444.355 191.287 444.479 187.976C444.479 187.976 447.942 193.145 457.867 197.564C457.867 197.564 457.781 191.172 462.618 194.109C462.618 194.109 464.496 195.187 464.414 199.855L466.441 201.124C467.899 202.042 468.994 203.438 469.536 205.074C470.385 207.589 471.705 209.919 473.425 211.94C473.425 211.94 462.916 221.31 456.444 219.511Z" fill="#C28C76"/>
<path d="M444.953 403.192C444.953 403.192 447.928 417.575 446.863 418.031C445.798 418.487 417.816 420.392 422.664 417.906L430.731 414.293C432.142 413.661 433.341 412.636 434.185 411.34C435.028 410.045 435.48 408.533 435.487 406.987L435.507 402.396L444.953 403.192Z" fill="#C28C76"/>
<path d="M423.695 417.446L431.431 417.018C430.831 416.287 430.177 415.601 429.476 414.966C429.373 414.87 429.295 414.75 429.25 414.616C429.204 414.483 429.193 414.34 429.216 414.201C429.24 414.062 429.298 413.931 429.384 413.82C429.471 413.709 429.584 413.621 429.713 413.564C429.942 413.462 430.194 413.423 430.443 413.45C430.692 413.478 430.93 413.57 431.131 413.718C432.192 414.635 433.114 415.702 433.868 416.884L436.202 416.754C436.778 415.677 439.012 412.499 446.256 410.144C446.31 410.126 446.367 410.12 446.424 410.127C446.48 410.133 446.534 410.152 446.583 410.182C446.631 410.211 446.673 410.251 446.704 410.298C446.736 410.345 446.757 410.398 446.766 410.454L446.946 411.567C446.96 411.659 446.942 411.753 446.894 411.833C446.846 411.912 446.772 411.972 446.684 412.002C443.764 413.011 441.067 414.578 438.744 416.614L447.079 416.153C447.515 417.335 447.544 418.629 447.161 419.83C433.695 421.584 420.948 420.484 418.973 419.329C416.998 418.175 423.695 417.446 423.695 417.446Z" fill="#6F5C59"/>
<path d="M478.185 403.192C478.185 403.192 481.16 417.575 480.095 418.031C479.03 418.487 451.048 420.392 455.896 417.906L463.963 414.293C465.374 413.661 466.573 412.636 467.416 411.34C468.26 410.045 468.712 408.533 468.719 406.987L468.739 402.396L478.185 403.192Z" fill="#C28C76"/>
<path d="M456.927 417.446L464.663 417.018C464.063 416.287 463.409 415.601 462.708 414.966C462.605 414.87 462.527 414.75 462.482 414.616C462.436 414.483 462.425 414.34 462.448 414.201C462.472 414.062 462.53 413.931 462.616 413.82C462.703 413.709 462.816 413.621 462.945 413.564C463.174 413.462 463.426 413.423 463.675 413.45C463.924 413.478 464.161 413.57 464.363 413.718C465.424 414.635 466.346 415.702 467.1 416.884L469.434 416.754C470.01 415.677 472.243 412.499 479.488 410.144C479.542 410.126 479.599 410.12 479.655 410.127C479.712 410.133 479.766 410.152 479.814 410.182C479.863 410.211 479.904 410.251 479.936 410.298C479.968 410.345 479.989 410.398 479.998 410.454L480.178 411.567C480.192 411.659 480.174 411.753 480.126 411.833C480.078 411.912 480.003 411.972 479.915 412.002C476.995 413.011 474.299 414.578 471.976 416.614L480.31 416.153C480.747 417.335 480.776 418.629 480.393 419.83C466.927 421.584 454.18 420.484 452.205 419.329C450.23 418.175 456.927 417.446 456.927 417.446Z" fill="#6F5C59"/>
<path d="M424.582 406.89C424.368 395.949 423.07 308.68 435.204 270.257L440.109 260.332L472.814 274.037C479.701 293.712 482.144 314.668 479.968 335.399C479.479 340.31 479.76 345.266 480.801 350.09L488.521 403.892C488.671 404.934 488.45 405.996 487.897 406.891C487.344 407.787 486.493 408.46 485.494 408.792C466.055 415.264 445.021 415.123 425.67 408.393C425.357 408.283 425.085 408.08 424.891 407.812C424.696 407.543 424.589 407.222 424.582 406.89Z" fill="#706F81"/>
<path d="M472.994 211.593C472.994 211.593 463.275 221.312 456.797 219.511C450.319 217.71 455.361 212.672 455.361 212.672L449.256 213.634C446.037 213.889 443.843 217.943 442.375 220.816C442.684 224.677 442.684 228.557 442.375 232.418C441.875 239.23 443.26 261.255 443.26 261.255C443.26 261.255 440.426 277.644 473.179 274.046L472.281 270.634H477.027C479.451 270.373 481.717 269.307 483.465 267.608C485.213 265.908 486.342 263.672 486.672 261.257C487.621 254.289 488.805 244.225 489.056 235.815C489.166 232.321 488.456 228.85 486.982 225.68C485.508 222.51 483.312 219.73 480.569 217.563L472.994 211.593Z" fill="#E8DEAE"/>
<path d="M469.926 253.229C469.926 253.229 464.719 227.705 451.7 212.933C451.7 212.933 445.646 212.198 442.364 216.486C442.364 216.486 434.299 255.424 441.132 270.261C455.785 302.078 480.535 314.77 480.535 314.77C480.535 314.77 477.583 272.794 469.926 253.229Z" fill="#706F81"/>
<path d="M444.475 187.967C444.475 187.967 446.202 192.994 457.864 197.555C457.864 197.555 458.183 193.748 460.631 193.554C461.041 193.531 461.451 193.613 461.821 193.793C462.191 193.972 462.509 194.244 462.744 194.581C463.883 196.093 464.469 197.95 464.406 199.842C464.564 201.829 465.034 203.778 465.8 205.618C466.649 207.343 468.453 207.815 469.929 209.051C471.568 210.487 472.622 210.498 473.439 209.051C474.454 207.277 478.377 205.724 479.131 199.84C479.626 195.973 477.804 188.635 476.588 185.559C470.714 170.707 446.116 177.429 444.475 187.967Z" fill="#DCDCDC"/>
<path d="M477.021 270.629C479.445 270.367 481.712 269.302 483.46 267.602C485.208 265.902 486.337 263.666 486.666 261.25C487.616 254.281 488.799 244.218 489.051 235.808C489.161 232.314 488.451 228.843 486.977 225.673C485.503 222.503 483.306 219.723 480.564 217.556L469.927 254.705L477.021 270.629Z" fill="#E8DEAE"/>
<path d="M446.822 248.529C446.822 248.529 438.324 245.679 436.423 241.706C436.423 241.706 434.972 238.241 434.448 238.241C433.961 238.241 433.78 239.638 434.329 242.828C434.442 243.438 434.326 244.068 434.003 244.598C433.681 245.128 433.175 245.52 432.582 245.701C431.227 245.986 429.823 245.946 428.487 245.583C428.487 245.583 418.648 242.473 424.56 250.333C425.854 251.493 427.369 252.378 429.014 252.936C430.66 253.493 432.401 253.711 434.133 253.576C437.897 253.364 441.648 254.184 444.98 255.948L446.822 248.529Z" fill="#F9977A"/>
<path d="M468.685 254.707L446.822 248.529L444.989 255.951L463.852 267.442C467.802 269.849 472.407 270.962 477.021 270.625L469.927 254.705L468.685 254.707Z" fill="#C28C76"/>
<path d="M515.108 198.251C512.695 197.883 510.229 198.095 507.914 198.867C504.974 199.778 502.481 201.756 500.926 204.411C500.124 206.512 499.706 208.74 499.692 210.988C499.512 213.107 499.443 215.234 499.488 217.36C499.488 218.829 499.518 220.931 499.692 223.526C499.915 226.824 500.035 228.485 500.515 229.075C502.448 231.458 506.592 229.255 506.68 232.365C506.734 234.284 505.515 235.499 507.116 237.212C509.102 239.347 516.65 238.539 519.422 237.083C519.801 236.886 525.347 233.902 524.972 230.506C524.773 228.693 523.074 228.504 521.889 225.779C521.13 223.889 520.917 221.823 521.273 219.818C521.812 215.85 523.807 215.365 525.383 210.57C525.811 209.365 525.922 208.071 525.706 206.811C525.49 205.552 524.954 204.369 524.15 203.375C521.831 200.655 518.63 198.836 515.106 198.237L515.108 198.251Z" fill="#6C4F47"/>
<path d="M529.908 431.438L530.901 441.349L513.691 449.757H540.118V431.443L529.908 431.438Z" fill="#6C4F47"/>
<path d="M501.545 431.438L502.538 441.349L485.322 449.757H511.749V431.443L501.545 431.438Z" fill="#6C4F47"/>
<path d="M482.668 450.658V450.597C482.668 450.133 482.797 449.679 483.04 449.284C483.283 448.889 483.631 448.57 484.045 448.361L501.908 439.359C502.083 439.271 502.283 439.247 502.474 439.292C502.664 439.336 502.833 439.447 502.951 439.603L506.443 444.25C506.567 444.414 506.748 444.527 506.95 444.566C507.152 444.606 507.362 444.569 507.538 444.463L511.637 442.004C511.764 441.93 511.908 441.89 512.055 441.889C512.202 441.888 512.346 441.926 512.473 441.999C512.601 442.072 512.707 442.177 512.781 442.304C512.855 442.431 512.894 442.575 512.894 442.722V450.658C512.894 450.879 512.806 451.092 512.65 451.248C512.493 451.405 512.281 451.493 512.059 451.493H483.51C483.4 451.494 483.29 451.473 483.188 451.431C483.086 451.39 482.993 451.328 482.915 451.251C482.837 451.173 482.774 451.081 482.732 450.979C482.69 450.877 482.668 450.768 482.668 450.658Z" fill="#935B50"/>
<path d="M511.038 450.658V450.597C511.038 450.133 511.166 449.679 511.41 449.284C511.653 448.889 512.001 448.57 512.415 448.361L530.278 439.359C530.453 439.271 530.653 439.247 530.844 439.292C531.034 439.336 531.203 439.447 531.321 439.603L534.813 444.25C534.937 444.414 535.117 444.527 535.32 444.566C535.522 444.606 535.731 444.569 535.908 444.463L540.007 442.004C540.134 441.93 540.278 441.89 540.425 441.889C540.571 441.888 540.716 441.926 540.843 441.999C540.971 442.072 541.077 442.177 541.151 442.304C541.224 442.431 541.264 442.575 541.264 442.722V450.658C541.264 450.879 541.176 451.092 541.019 451.248C540.863 451.405 540.65 451.493 540.429 451.493H511.873C511.651 451.493 511.439 451.405 511.282 451.248C511.126 451.092 511.038 450.879 511.038 450.658Z" fill="#935B50"/>
<path d="M528.522 436.522H540.162C541.472 436.522 545.27 435.836 545.27 434.526L546.979 392.995C546.979 384.916 547.223 375.908 546.979 366.631C546.979 366.631 535.994 310.344 536.529 298.51L502.538 295.997L523.572 432.346C524.692 434.266 526.44 435.741 528.522 436.522Z" fill="#707070"/>
<path d="M491.471 294.234C491.471 294.234 489.675 323.164 489.675 329.963C489.675 329.963 485.282 370.899 485.322 371.152C486.925 381.799 486.964 389.177 488.83 398.861L495.872 435.401C495.929 435.987 496.203 436.53 496.639 436.926C497.076 437.321 497.644 437.54 498.233 437.541H511.948C513.327 437.541 516.559 435.657 516.46 434.282C516.46 434.282 514.799 376.679 514.596 370.057L526.513 298.505L491.471 294.234Z" fill="#707070"/>
<path d="M505.035 231.341L507.964 232.628C507.964 232.628 509.876 242.306 523.441 228.124L536.529 236.221C539.492 238.104 541.868 240.778 543.39 243.941C548.563 254.889 551.59 266.726 552.308 278.812C552.308 278.812 556.529 364.148 556.146 372.186C556.078 373.635 475.163 372.477 475.163 370.823C475.163 370.825 480.565 252.305 505.035 231.341Z" fill="#B4D2D0"/>
<path d="M463.995 248.05C463.995 248.05 463.871 244.786 458.85 239.611C453.828 234.437 449.334 230.909 451.941 235.264L453.987 238.55C453.987 238.55 448.585 236.455 445.477 234.925C444.659 234.507 443.728 234.362 442.821 234.512C441.915 234.662 441.08 235.1 440.441 235.76C439.27 237.017 439.304 238.405 442.536 240.855C445.516 243.227 448.81 245.174 452.325 246.64C452.83 246.834 453.256 247.191 453.537 247.653L457.147 250.592L463.995 248.05Z" fill="#6C4F47"/>
<path d="M504.298 231.99C504.298 231.99 501.577 233.207 499.477 234.284C496.554 235.781 492.017 241.048 486.706 254.197L483.176 262.936C477.025 255.79 470.429 249.04 463.426 242.726L454.381 250.066L475.317 274.182C476.672 276.119 478.471 277.703 480.564 278.802C485.343 281.246 490.225 280.44 492.905 275.472C497.098 267.701 502.08 255.869 502.558 252.571L504.298 231.99Z" fill="#B4D2D0"/>
<path d="M524.561 215.927C524.286 218.531 524.536 220.098 523.688 221.579C523.141 222.538 521.218 223.42 521.135 222.527C520.948 221.487 520.952 220.422 521.146 219.383C521.603 218.346 521.922 217.254 522.096 216.134C522.344 214.338 521.984 211.663 520.451 210.995C520.04 210.845 519.596 210.803 519.164 210.876C518.731 210.948 518.325 211.13 517.984 211.406C517.623 211.788 517.346 212.24 517.169 212.735C516.992 213.229 516.92 213.755 516.957 214.279C516.82 216.126 516.82 217.981 516.957 219.829C517.089 222.203 516.74 224.58 515.93 226.816C515.631 227.934 515.114 228.981 514.408 229.898C513.703 230.815 512.824 231.584 511.821 232.16C510.165 232.73 508.378 232.801 506.682 232.364C504.743 232.365 502.86 231.718 501.332 230.526C500.219 229.415 499.498 227.973 499.276 226.416C499.053 225.046 499.43 224.874 499.276 222.306C499.164 220.5 498.951 220.152 499.276 219.635C499.601 219.118 500.818 220.611 501.536 220.457C502.445 220.26 502.915 218.513 503.797 218.812C504.853 219.261 505.824 219.886 506.669 220.662C507.869 221.604 508.066 221.981 508.725 222.098C509.268 222.142 509.814 222.053 510.315 221.838C510.815 221.623 511.256 221.289 511.598 220.865C512.54 219.751 512.445 217.992 512.214 214.493C511.952 212.721 511.952 210.921 512.214 209.149C512.283 208.238 512.643 207.373 513.241 206.682C514.183 205.785 515.036 206.271 517.35 205.655C518.814 205.27 520.203 204.645 521.462 203.806C523.132 202.675 523.286 201.957 524.134 201.957C525.469 201.957 526.737 203.722 527.216 205.246C527.918 207.49 527.08 209.69 526.189 212.029C525.22 214.607 524.715 214.48 524.561 215.927ZM501.653 224.601C502.714 224.39 503.815 224.531 504.79 225.001C504.931 225.057 505.086 225.067 505.234 225.029C505.381 224.991 505.512 224.907 505.609 224.79C505.705 224.673 505.762 224.528 505.771 224.376C505.78 224.224 505.741 224.073 505.659 223.946C505.138 223.275 504.405 222.802 503.58 222.605C502.755 222.407 501.887 222.496 501.12 222.858C500.942 222.921 500.788 223.038 500.679 223.193C500.571 223.348 500.512 223.532 500.513 223.721C500.514 223.86 500.546 223.997 500.608 224.121C500.669 224.246 500.759 224.354 500.868 224.439C500.978 224.524 501.106 224.583 501.242 224.611C501.378 224.64 501.518 224.637 501.653 224.603V224.601Z" fill="#CDD3D1"/>
<path d="M527.847 329.575L530.568 325.95C530.568 325.95 530.568 329.721 530.419 333.312C530.4 333.807 530.564 334.291 530.88 334.673C531.196 335.054 531.642 335.305 532.132 335.378H532.156L532.666 335.452L534.82 335.764L535.314 335.838L536.949 336.077L537.434 336.15C537.804 336.057 538.139 335.861 538.401 335.584C538.663 335.308 538.841 334.962 538.914 334.588C539.391 332.143 540.391 326.844 540.386 325.535C540.386 324.902 541.118 317.758 541.118 317.758L536.703 311.009C536.703 311.009 533.193 312.529 529.682 320.192C526.17 327.855 524.205 334.269 527.847 329.575Z" fill="#6C4F47"/>
<path d="M530.892 315.03L538.984 285.445C539.38 283.096 539.185 280.685 538.415 278.43L533.344 264.514C532.554 262.335 531.594 260.222 530.472 258.194C527.448 252.752 521.543 240.013 529.775 235.851C540.352 230.503 549.582 255.37 549.582 255.37L552.855 263.18C555.342 269.093 556.447 275.495 556.087 281.899C555.98 284.166 555.751 286.426 555.401 288.668C554.117 295.756 544.788 318.55 544.788 318.55C542.822 319.768 540.491 320.257 538.201 319.933C535.911 319.608 533.808 318.49 532.258 316.774C532.258 316.774 531.039 315.251 530.892 315.03Z" fill="#B4D2D0"/>
</svg>
